<svg width="375" height="812" viewBox="0 0 375 812" fill="none" xmlns="http://www.w3.org/2000/svg">
<g clip-path="url(#clip0)">
<rect width="375" height="812" fill="white"/>
<path d="M-0.0898056 443.363C199.958 591.1 228.518 443.363 375 443.363V817H-0.0898056C-0.0898056 817 -200.138 295.626 -0.0898056 443.363Z" fill="#8D1B3D" fill-opacity="0.83"/>
<path d="M99.6979 104.981C98.225 104.629 96.7317 104.369 95.2265 104.203C87.715 103.409 81.3861 105.407 78.6292 110.185C75.9146 114.882 77.2454 121.213 81.5052 127.219C92.6653 142.933 118.999 146.798 138.766 144.078M223.946 149.074C215.91 162.501 210.61 177.386 208.35 192.87C206.091 208.354 206.917 224.133 210.781 239.297C218.454 269.221 227.351 272.235 251.087 253.968C274.823 235.701 290.449 204.491 290.449 172.804C290.484 151.506 283.91 130.722 271.635 113.318L223.946 149.074ZM262.258 101.843C250.178 89.0614 235.041 79.5667 218.276 74.254C201.51 68.9412 183.668 67.9855 166.431 71.4767L262.258 101.843ZM152.559 75.3158C139.612 79.917 127.709 87.0455 117.541 96.2869C107.373 105.528 99.1431 116.698 93.3294 129.148L152.559 75.3158ZM88.1145 142.779C85.1721 152.512 83.6815 162.626 83.6907 172.794C83.6907 204.488 99.2693 236.315 123.05 253.957C146.831 271.6 155.406 270.054 163.359 239.286C171.313 208.518 165.873 171.373 146.087 142.713C138.504 131.72 126.773 118.707 113.729 110.923L88.1145 142.779ZM277.207 139.184C262.189 145.867 242.144 146.153 228.053 142.7C215.05 139.51 202.89 133.547 192.405 125.222L277.207 139.184ZM232.553 136.599C244.039 121.922 261.467 106.084 278.913 104.214C286.425 103.42 292.751 105.417 295.513 110.196C298.22 114.892 296.895 121.224 292.629 127.23C291.634 128.629 290.521 129.94 289.304 131.151L232.553 136.599ZM215.181 65.9311C214.681 58.6457 211.372 51.8391 205.951 46.9458C200.53 42.0526 193.422 39.4551 186.123 39.7007C178.825 39.9464 171.907 43.016 166.828 48.2626C161.749 53.5093 158.905 60.523 158.896 67.8255C158.896 83.0999 171.096 103.28 182.063 115.53L215.181 65.9311ZM213.082 80.2635C208.259 95.5326 196.311 112.127 187.069 120.655C177.411 129.58 165.974 136.36 153.509 140.551L213.082 80.2635Z" stroke="#8D1B3D" stroke-width="20" stroke-linecap="round" stroke-linejoin="round"/>
<path d="M30.9564 322.144C29.7084 322.144 28.5084 321.944 27.3564 321.544C26.2204 321.144 25.3404 320.616 24.7164 319.96L25.4124 318.592C26.0204 319.2 26.8284 319.696 27.8364 320.08C28.8444 320.448 29.8844 320.632 30.9564 320.632C32.4604 320.632 33.5884 320.36 34.3404 319.816C35.0924 319.256 35.4684 318.536 35.4684 317.656C35.4684 316.984 35.2604 316.448 34.8444 316.048C34.4444 315.648 33.9484 315.344 33.3564 315.136C32.7644 314.912 31.9404 314.672 30.8844 314.416C29.6204 314.096 28.6124 313.792 27.8604 313.504C27.1084 313.2 26.4604 312.744 25.9164 312.136C25.3884 311.528 25.1244 310.704 25.1244 309.664C25.1244 308.816 25.3484 308.048 25.7964 307.36C26.2444 306.656 26.9324 306.096 27.8604 305.68C28.7884 305.264 29.9404 305.056 31.3164 305.056C32.2764 305.056 33.2124 305.192 34.1244 305.464C35.0524 305.72 35.8524 306.08 36.5244 306.544L35.9244 307.96C35.2204 307.496 34.4684 307.152 33.6684 306.928C32.8684 306.688 32.0844 306.568 31.3164 306.568C29.8444 306.568 28.7324 306.856 27.9804 307.432C27.2444 307.992 26.8764 308.72 26.8764 309.616C26.8764 310.288 27.0764 310.832 27.4764 311.248C27.8924 311.648 28.4044 311.96 29.0124 312.184C29.6364 312.392 30.4684 312.624 31.5084 312.88C32.7404 313.184 33.7324 313.488 34.4844 313.792C35.2524 314.08 35.9004 314.528 36.4284 315.136C36.9564 315.728 37.2204 316.536 37.2204 317.56C37.2204 318.408 36.9884 319.184 36.5244 319.888C36.0764 320.576 35.3804 321.128 34.4364 321.544C33.4924 321.944 32.3324 322.144 30.9564 322.144ZM41.8101 305.2H43.5861V322H41.8101V305.2ZM54.4043 322.144C53.1563 322.144 51.9563 321.944 50.8043 321.544C49.6683 321.144 48.7883 320.616 48.1643 319.96L48.8603 318.592C49.4683 319.2 50.2763 319.696 51.2843 320.08C52.2923 320.448 53.3323 320.632 54.4043 320.632C55.9083 320.632 57.0363 320.36 57.7883 319.816C58.5403 319.256 58.9163 318.536 58.9163 317.656C58.9163 316.984 58.7083 316.448 58.2923 316.048C57.8923 315.648 57.3963 315.344 56.8043 315.136C56.2123 314.912 55.3883 314.672 54.3323 314.416C53.0683 314.096 52.0603 313.792 51.3083 313.504C50.5563 313.2 49.9083 312.744 49.3643 312.136C48.8363 311.528 48.5723 310.704 48.5723 309.664C48.5723 308.816 48.7963 308.048 49.2443 307.36C49.6923 306.656 50.3803 306.096 51.3083 305.68C52.2363 305.264 53.3883 305.056 54.7643 305.056C55.7243 305.056 56.6603 305.192 57.5723 305.464C58.5003 305.72 59.3003 306.08 59.9723 306.544L59.3723 307.96C58.6683 307.496 57.9163 307.152 57.1163 306.928C56.3163 306.688 55.5323 306.568 54.7643 306.568C53.2923 306.568 52.1803 306.856 51.4283 307.432C50.6923 307.992 50.3243 308.72 50.3243 309.616C50.3243 310.288 50.5243 310.832 50.9243 311.248C51.3403 311.648 51.8523 311.96 52.4603 312.184C53.0843 312.392 53.9163 312.624 54.9563 312.88C56.1883 313.184 57.1803 313.488 57.9323 313.792C58.7003 314.08 59.3483 314.528 59.8763 315.136C60.4043 315.728 60.6683 316.536 60.6683 317.56C60.6683 318.408 60.4363 319.184 59.9723 319.888C59.5243 320.576 58.8283 321.128 57.8843 321.544C56.9403 321.944 55.7803 322.144 54.4043 322.144ZM68.2875 306.736H62.3835V305.2H75.9675V306.736H70.0635V322H68.2875V306.736ZM91.4048 320.464V322H79.5248V305.2H91.0448V306.736H81.3008V312.712H89.9888V314.224H81.3008V320.464H91.4048ZM107.771 322L103.931 316.6C103.499 316.648 103.051 316.672 102.587 316.672H98.0754V322H96.2994V305.2H102.587C104.731 305.2 106.411 305.712 107.627 306.736C108.843 307.76 109.451 309.168 109.451 310.96C109.451 312.272 109.115 313.384 108.443 314.296C107.787 315.192 106.843 315.84 105.611 316.24L109.715 322H107.771ZM102.539 315.16C104.203 315.16 105.475 314.792 106.355 314.056C107.235 313.32 107.675 312.288 107.675 310.96C107.675 309.6 107.235 308.56 106.355 307.84C105.475 307.104 104.203 306.736 102.539 306.736H98.0754V315.16H102.539ZM118.995 322.144C117.747 322.144 116.547 321.944 115.395 321.544C114.259 321.144 113.379 320.616 112.755 319.96L113.451 318.592C114.059 319.2 114.867 319.696 115.875 320.08C116.883 320.448 117.923 320.632 118.995 320.632C120.499 320.632 121.627 320.36 122.379 319.816C123.131 319.256 123.507 318.536 123.507 317.656C123.507 316.984 123.299 316.448 122.883 316.048C122.483 315.648 121.987 315.344 121.395 315.136C120.803 314.912 119.979 314.672 118.923 314.416C117.659 314.096 116.651 313.792 115.899 313.504C115.147 313.2 114.499 312.744 113.955 312.136C113.427 311.528 113.163 310.704 113.163 309.664C113.163 308.816 113.387 308.048 113.835 307.36C114.283 306.656 114.971 306.096 115.899 305.68C116.827 305.264 117.979 305.056 119.355 305.056C120.315 305.056 121.251 305.192 122.163 305.464C123.091 305.72 123.891 306.08 124.563 306.544L123.963 307.96C123.259 307.496 122.507 307.152 121.707 306.928C120.907 306.688 120.123 306.568 119.355 306.568C117.883 306.568 116.771 306.856 116.019 307.432C115.283 307.992 114.915 308.72 114.915 309.616C114.915 310.288 115.115 310.832 115.515 311.248C115.931 311.648 116.443 311.96 117.051 312.184C117.675 312.392 118.507 312.624 119.547 312.88C120.779 313.184 121.771 313.488 122.523 313.792C123.291 314.08 123.939 314.528 124.467 315.136C124.995 315.728 125.259 316.536 125.259 317.56C125.259 318.408 125.027 319.184 124.563 319.888C124.115 320.576 123.419 321.128 122.475 321.544C121.531 321.944 120.371 322.144 118.995 322.144ZM144.194 322.144C142.53 322.144 141.018 321.776 139.658 321.04C138.314 320.288 137.258 319.264 136.49 317.968C135.738 316.672 135.362 315.216 135.362 313.6C135.362 311.984 135.738 310.528 136.49 309.232C137.258 307.936 138.314 306.92 139.658 306.184C141.018 305.432 142.53 305.056 144.194 305.056C145.858 305.056 147.354 305.424 148.682 306.16C150.026 306.896 151.082 307.92 151.85 309.232C152.618 310.528 153.002 311.984 153.002 313.6C153.002 315.216 152.618 316.68 151.85 317.992C151.082 319.288 150.026 320.304 148.682 321.04C147.354 321.776 145.858 322.144 144.194 322.144ZM144.194 320.56C145.522 320.56 146.722 320.264 147.794 319.672C148.866 319.064 149.706 318.232 150.314 317.176C150.922 316.104 151.226 314.912 151.226 313.6C151.226 312.288 150.922 311.104 150.314 310.048C149.706 308.976 148.866 308.144 147.794 307.552C146.722 306.944 145.522 306.64 144.194 306.64C142.866 306.64 141.658 306.944 140.57 307.552C139.498 308.144 138.65 308.976 138.026 310.048C137.418 311.104 137.114 312.288 137.114 313.6C137.114 314.912 137.418 316.104 138.026 317.176C138.65 318.232 139.498 319.064 140.57 319.672C141.658 320.264 142.866 320.56 144.194 320.56ZM159.479 306.736V313.336H168.167V314.872H159.479V322H157.703V305.2H169.223V306.736H159.479ZM180.612 305.2H182.388V322H180.612V305.2ZM193.206 322.144C191.958 322.144 190.758 321.944 189.606 321.544C188.47 321.144 187.59 320.616 186.966 319.96L187.662 318.592C188.27 319.2 189.078 319.696 190.086 320.08C191.094 320.448 192.134 320.632 193.206 320.632C194.71 320.632 195.838 320.36 196.59 319.816C197.342 319.256 197.718 318.536 197.718 317.656C197.718 316.984 197.51 316.448 197.094 316.048C196.694 315.648 196.198 315.344 195.606 315.136C195.014 314.912 194.19 314.672 193.134 314.416C191.87 314.096 190.862 313.792 190.11 313.504C189.358 313.2 188.71 312.744 188.166 312.136C187.638 311.528 187.374 310.704 187.374 309.664C187.374 308.816 187.598 308.048 188.046 307.36C188.494 306.656 189.182 306.096 190.11 305.68C191.038 305.264 192.19 305.056 193.566 305.056C194.526 305.056 195.462 305.192 196.374 305.464C197.302 305.72 198.102 306.08 198.774 306.544L198.174 307.96C197.47 307.496 196.718 307.152 195.918 306.928C195.118 306.688 194.334 306.568 193.566 306.568C192.094 306.568 190.982 306.856 190.23 307.432C189.494 307.992 189.126 308.72 189.126 309.616C189.126 310.288 189.326 310.832 189.726 311.248C190.142 311.648 190.654 311.96 191.262 312.184C191.886 312.392 192.718 312.624 193.758 312.88C194.99 313.184 195.982 313.488 196.734 313.792C197.502 314.08 198.15 314.528 198.678 315.136C199.206 315.728 199.47 316.536 199.47 317.56C199.47 318.408 199.238 319.184 198.774 319.888C198.326 320.576 197.63 321.128 196.686 321.544C195.742 321.944 194.582 322.144 193.206 322.144ZM204.059 305.2H205.835V320.464H215.243V322H204.059V305.2ZM229.495 317.512H220.135L218.119 322H216.271L223.951 305.2H225.703L233.383 322H231.511L229.495 317.512ZM228.847 316.072L224.815 307.048L220.783 316.072H228.847ZM254.33 305.2V322H252.626V308.56L246.026 319.864H245.186L238.586 308.632V322H236.882V305.2H238.346L245.642 317.656L252.866 305.2H254.33ZM284.445 323.416C283.933 324.04 283.325 324.512 282.621 324.832C281.933 325.168 281.181 325.336 280.365 325.336C279.373 325.336 278.429 325.088 277.533 324.592C276.653 324.112 275.661 323.296 274.557 322.144C272.941 322.096 271.485 321.696 270.189 320.944C268.893 320.192 267.877 319.176 267.141 317.896C266.405 316.616 266.037 315.184 266.037 313.6C266.037 311.984 266.413 310.528 267.165 309.232C267.933 307.936 268.989 306.92 270.333 306.184C271.693 305.432 273.205 305.056 274.869 305.056C276.533 305.056 278.029 305.424 279.357 306.16C280.701 306.896 281.757 307.92 282.525 309.232C283.293 310.528 283.677 311.984 283.677 313.6C283.677 315.008 283.381 316.304 282.789 317.488C282.213 318.656 281.397 319.632 280.341 320.416C279.301 321.2 278.101 321.72 276.741 321.976C277.973 323.272 279.189 323.92 280.389 323.92C281.637 323.92 282.701 323.408 283.581 322.384L284.445 323.416ZM267.789 313.6C267.789 314.912 268.093 316.096 268.701 317.152C269.325 318.208 270.173 319.04 271.245 319.648C272.333 320.256 273.541 320.56 274.869 320.56C276.197 320.56 277.397 320.256 278.469 319.648C279.541 319.04 280.381 318.208 280.989 317.152C281.597 316.096 281.901 314.912 281.901 313.6C281.901 312.288 281.597 311.104 280.989 310.048C280.381 308.992 279.541 308.16 278.469 307.552C277.397 306.944 276.197 306.64 274.869 306.64C273.541 306.64 272.333 306.944 271.245 307.552C270.173 308.16 269.325 308.992 268.701 310.048C268.093 311.104 267.789 312.288 267.789 313.6ZM298.68 317.512H289.32L287.304 322H285.456L293.136 305.2H294.888L302.568 322H300.696L298.68 317.512ZM298.032 316.072L294 307.048L289.968 316.072H298.032ZM308.487 306.736H302.583V305.2H316.167V306.736H310.263V322H308.487V306.736ZM329.417 317.512H320.057L318.041 322H316.193L323.873 305.2H325.625L333.305 322H331.433L329.417 317.512ZM328.769 316.072L324.737 307.048L320.705 316.072H328.769ZM348.276 322L344.436 316.6C344.004 316.648 343.556 316.672 343.092 316.672H338.58V322H336.804V305.2H343.092C345.236 305.2 346.916 305.712 348.132 306.736C349.348 307.76 349.956 309.168 349.956 310.96C349.956 312.272 349.62 313.384 348.948 314.296C348.292 315.192 347.348 315.84 346.116 316.24L350.22 322H348.276ZM343.044 315.16C344.708 315.16 345.98 314.792 346.86 314.056C347.74 313.32 348.18 312.288 348.18 310.96C348.18 309.6 347.74 308.56 346.86 307.84C345.98 307.104 344.708 306.736 343.044 306.736H338.58V315.16H343.044Z" fill="black"/>
<path d="M27.3564 321.544L27.0243 322.487L27.0284 322.489L27.3564 321.544ZM24.7164 319.96L23.8252 319.507L23.5045 320.137L23.9919 320.649L24.7164 319.96ZM25.4124 318.592L26.1195 317.885L25.1457 316.911L24.5212 318.139L25.4124 318.592ZM27.8364 320.08L27.4804 321.015L27.4935 321.019L27.8364 320.08ZM34.3404 319.816L34.9266 320.626L34.9377 320.618L34.3404 319.816ZM34.8444 316.048L34.1373 316.755L34.1443 316.762L34.1513 316.769L34.8444 316.048ZM33.3564 315.136L33.0025 316.071L33.0137 316.076L33.025 316.079L33.3564 315.136ZM30.8844 314.416L30.639 315.385L30.6488 315.388L30.8844 314.416ZM27.8604 313.504L27.4857 314.431L27.4942 314.435L27.5028 314.438L27.8604 313.504ZM25.9164 312.136L25.1614 312.792L25.1663 312.797L25.1712 312.803L25.9164 312.136ZM25.7964 307.36L26.6345 307.906L26.6401 307.897L25.7964 307.36ZM27.8604 305.68L28.2695 306.593H28.2695L27.8604 305.68ZM34.1244 305.464L33.8386 306.422L33.8485 306.425L33.8585 306.428L34.1244 305.464ZM36.5244 306.544L37.4452 306.934L37.7631 306.184L37.0926 305.721L36.5244 306.544ZM35.9244 307.96L35.3741 308.795L36.3767 309.456L36.8452 308.35L35.9244 307.96ZM33.6684 306.928L33.3811 307.886L33.3899 307.888L33.3988 307.891L33.6684 306.928ZM27.9804 307.432L28.586 308.228L28.5885 308.226L27.9804 307.432ZM27.4764 311.248L26.7556 311.941L26.7692 311.955L26.7833 311.969L27.4764 311.248ZM29.0124 312.184L28.6667 313.122L28.6814 313.128L28.6962 313.133L29.0124 312.184ZM31.5084 312.88L31.748 311.909L31.7475 311.909L31.5084 312.88ZM34.4844 313.792L34.1096 314.719L34.1214 314.724L34.1333 314.728L34.4844 313.792ZM36.4284 315.136L35.6733 315.792L35.6821 315.802L36.4284 315.136ZM36.5244 319.888L35.6895 319.338L35.6864 319.342L36.5244 319.888ZM34.4364 321.544L34.8266 322.465L34.8332 322.462L34.8397 322.459L34.4364 321.544ZM30.9564 321.144C29.8174 321.144 28.7285 320.962 27.6845 320.599L27.0284 322.489C28.2884 322.926 29.5994 323.144 30.9564 323.144V321.144ZM27.6886 320.601C26.6544 320.237 25.9262 319.781 25.441 319.271L23.9919 320.649C24.7547 321.451 25.7864 322.051 27.0243 322.487L27.6886 320.601ZM25.6077 320.413L26.3037 319.045L24.5212 318.139L23.8252 319.507L25.6077 320.413ZM24.7053 319.299C25.435 320.029 26.3732 320.593 27.4804 321.014L28.1924 319.146C27.2837 318.799 26.6059 318.371 26.1195 317.885L24.7053 319.299ZM27.4935 321.019C28.6113 321.427 29.7673 321.632 30.9564 321.632V319.632C30.0015 319.632 29.0776 319.469 28.1794 319.141L27.4935 321.019ZM30.9564 321.632C32.5511 321.632 33.9275 321.349 34.9266 320.626L33.7543 319.006C33.2494 319.371 32.3698 319.632 30.9564 319.632V321.632ZM34.9377 320.618C35.9238 319.884 36.4684 318.875 36.4684 317.656H34.4684C34.4684 318.197 34.2611 318.628 33.7432 319.014L34.9377 320.618ZM36.4684 317.656C36.4684 316.761 36.1821 315.947 35.5375 315.327L34.1513 316.769C34.3388 316.949 34.4684 317.207 34.4684 317.656H36.4684ZM35.5515 315.341C35.0345 314.824 34.4057 314.445 33.6879 314.193L33.025 316.079C33.4912 316.243 33.8544 316.472 34.1373 316.755L35.5515 315.341ZM33.7103 314.201C33.062 313.955 32.1921 313.704 31.12 313.444L30.6488 315.388C31.6887 315.64 32.4669 315.869 33.0025 316.071L33.7103 314.201ZM31.1299 313.447C29.8838 313.131 28.9181 312.838 28.2181 312.57L27.5028 314.438C28.3068 314.746 29.3571 315.061 30.639 315.385L31.1299 313.447ZM28.2352 312.577C27.6258 312.331 27.1043 311.964 26.6617 311.469L25.1712 312.803C25.8165 313.524 26.591 314.069 27.4857 314.431L28.2352 312.577ZM26.6715 311.48C26.3429 311.102 26.1244 310.535 26.1244 309.664H24.1244C24.1244 310.873 24.4339 311.954 25.1614 312.792L26.6715 311.48ZM26.1244 309.664C26.1244 309.003 26.2958 308.426 26.6344 307.906L24.9584 306.814C24.4011 307.67 24.1244 308.629 24.1244 309.664H26.1244ZM26.6401 307.897C26.9621 307.391 27.4806 306.946 28.2695 306.593L27.4514 304.767C26.3843 305.246 25.5268 305.921 24.9528 306.823L26.6401 307.897ZM28.2695 306.593C29.0319 306.251 30.0344 306.056 31.3164 306.056V304.056C29.8465 304.056 28.545 304.277 27.4514 304.767L28.2695 306.593ZM31.3164 306.056C32.1805 306.056 33.0202 306.178 33.8386 306.422L34.4102 304.506C33.4047 304.206 32.3724 304.056 31.3164 304.056V306.056ZM33.8585 306.428C34.6974 306.659 35.3912 306.977 35.9562 307.367L37.0926 305.721C36.3137 305.183 35.4075 304.781 34.3904 304.5L33.8585 306.428ZM35.6037 306.154L35.0037 307.57L36.8452 308.35L37.4452 306.934L35.6037 306.154ZM36.4748 307.125C35.6857 306.605 34.8392 306.217 33.9381 305.965L33.3988 307.891C34.0977 308.087 34.7552 308.387 35.3741 308.795L36.4748 307.125ZM33.9558 305.97C33.0707 305.705 32.1899 305.568 31.3164 305.568V307.568C31.979 307.568 32.6662 307.671 33.3811 307.886L33.9558 305.97ZM31.3164 305.568C29.739 305.568 28.372 305.872 27.3724 306.638L28.5885 308.226C29.0929 307.84 29.9499 307.568 31.3164 307.568V305.568ZM27.3749 306.636C26.3997 307.378 25.8764 308.396 25.8764 309.616H27.8764C27.8764 309.044 28.0892 308.606 28.586 308.228L27.3749 306.636ZM25.8764 309.616C25.8764 310.501 26.1472 311.308 26.7556 311.941L28.1973 310.555C28.0057 310.356 27.8764 310.075 27.8764 309.616H25.8764ZM26.7833 311.969C27.3104 312.476 27.9451 312.856 28.6667 313.122L29.3581 311.246C28.8638 311.064 28.4745 310.82 28.1695 310.527L26.7833 311.969ZM28.6962 313.133C29.3564 313.353 30.2173 313.592 31.2694 313.851L31.7475 311.909C30.7195 311.656 29.9165 311.431 29.3287 311.235L28.6962 313.133ZM31.2689 313.851C32.4774 314.149 33.4189 314.44 34.1096 314.719L34.8592 312.865C34.046 312.536 33.0035 312.219 31.748 311.909L31.2689 313.851ZM34.1333 314.728C34.7484 314.959 35.2567 315.312 35.6734 315.792L37.1835 314.48C36.5442 313.744 35.7564 313.201 34.8356 312.856L34.1333 314.728ZM35.6821 315.802C36.0037 316.162 36.2204 316.708 36.2204 317.56H38.2204C38.2204 316.364 37.9091 315.294 37.1747 314.47L35.6821 315.802ZM36.2204 317.56C36.2204 318.214 36.0452 318.798 35.6895 319.338L37.3594 320.438C37.9317 319.57 38.2204 318.602 38.2204 317.56H36.2204ZM35.6864 319.342C35.3686 319.83 34.845 320.271 34.0332 320.629L34.8397 322.459C35.9159 321.985 36.7843 321.322 37.3624 320.434L35.6864 319.342ZM34.0463 320.623C33.2602 320.956 32.2417 321.144 30.9564 321.144V323.144C32.4232 323.144 33.7247 322.932 34.8266 322.465L34.0463 320.623ZM41.8101 305.2V304.2H40.8101V305.2H41.8101ZM43.5861 305.2H44.5861V304.2H43.5861V305.2ZM43.5861 322V323H44.5861V322H43.5861ZM41.8101 322H40.8101V323H41.8101V322ZM41.8101 306.2H43.5861V304.2H41.8101V306.2ZM42.5861 305.2V322H44.5861V305.2H42.5861ZM43.5861 321H41.8101V323H43.5861V321ZM42.8101 322V305.2H40.8101V322H42.8101ZM50.8043 321.544L50.4721 322.487L50.4762 322.489L50.8043 321.544ZM48.1643 319.96L47.273 319.507L46.9523 320.137L47.4397 320.649L48.1643 319.96ZM48.8603 318.592L49.5674 317.885L48.5935 316.911L47.969 318.139L48.8603 318.592ZM51.2843 320.08L50.9282 321.015L50.9413 321.019L51.2843 320.08ZM57.7883 319.816L58.3744 320.626L58.3855 320.618L57.7883 319.816ZM58.2923 316.048L57.5851 316.755L57.5921 316.762L57.5991 316.769L58.2923 316.048ZM56.8043 315.136L56.4504 316.071L56.4615 316.076L56.4728 316.079L56.8043 315.136ZM54.3323 314.416L54.0868 315.385L54.0967 315.388L54.3323 314.416ZM51.3083 313.504L50.9335 314.431L50.942 314.435L50.9506 314.438L51.3083 313.504ZM49.3643 312.136L48.6092 312.792L48.6141 312.797L48.619 312.803L49.3643 312.136ZM49.2443 307.36L50.0823 307.906L50.0879 307.897L49.2443 307.36ZM51.3083 305.68L51.7173 306.593L51.3083 305.68ZM57.5723 305.464L57.2864 306.422L57.2964 306.425L57.3063 306.428L57.5723 305.464ZM59.9723 306.544L60.893 306.934L61.2109 306.184L60.5404 305.721L59.9723 306.544ZM59.3723 307.96L58.8219 308.795L59.8245 309.456L60.293 308.35L59.3723 307.96ZM57.1163 306.928L56.8289 307.886L56.8377 307.888L56.8466 307.891L57.1163 306.928ZM51.4283 307.432L52.0338 308.228L52.0363 308.226L51.4283 307.432ZM50.9243 311.248L50.2034 311.941L50.217 311.955L50.2311 311.969L50.9243 311.248ZM52.4603 312.184L52.1146 313.122L52.1292 313.128L52.144 313.133L52.4603 312.184ZM54.9563 312.88L55.1958 311.909L55.1953 311.909L54.9563 312.88ZM57.9323 313.792L57.5575 314.719L57.5692 314.724L57.5811 314.728L57.9323 313.792ZM59.8763 315.136L59.1212 315.792L59.13 315.802L59.8763 315.136ZM59.9723 319.888L59.1373 319.338L59.1343 319.342L59.9723 319.888ZM57.8843 321.544L58.2744 322.465L58.281 322.462L58.2875 322.459L57.8843 321.544ZM54.4043 321.144C53.2653 321.144 52.1763 320.962 51.1323 320.599L50.4762 322.489C51.7362 322.926 53.0472 323.144 54.4043 323.144V321.144ZM51.1364 320.601C50.1023 320.237 49.374 319.781 48.8888 319.271L47.4397 320.649C48.2025 321.451 49.2342 322.051 50.4721 322.487L51.1364 320.601ZM49.0555 320.413L49.7515 319.045L47.969 318.139L47.273 319.507L49.0555 320.413ZM48.1531 319.299C48.8828 320.029 49.821 320.593 50.9283 321.014L51.6403 319.146C50.7315 318.799 50.0537 318.371 49.5674 317.885L48.1531 319.299ZM50.9413 321.019C52.0591 321.427 53.2152 321.632 54.4043 321.632V319.632C53.4494 319.632 52.5254 319.469 51.6272 319.141L50.9413 321.019ZM54.4043 321.632C55.9989 321.632 57.3753 321.349 58.3744 320.626L57.2021 319.006C56.6972 319.371 55.8176 319.632 54.4043 319.632V321.632ZM58.3855 320.618C59.3716 319.884 59.9163 318.875 59.9163 317.656H57.9163C57.9163 318.197 57.7089 318.628 57.191 319.014L58.3855 320.618ZM59.9163 317.656C59.9163 316.761 59.6299 315.947 58.9854 315.327L57.5991 316.769C57.7866 316.949 57.9163 317.207 57.9163 317.656H59.9163ZM58.9994 315.341C58.4823 314.824 57.8535 314.445 57.1357 314.193L56.4728 316.079C56.939 316.243 57.3022 316.472 57.5851 316.755L58.9994 315.341ZM57.1581 314.201C56.5098 313.955 55.64 313.704 54.5679 313.444L54.0967 315.388C55.1366 315.64 55.9147 315.869 56.4504 316.071L57.1581 314.201ZM54.5777 313.447C53.3316 313.131 52.3659 312.838 51.6659 312.57L50.9506 314.438C51.7546 314.746 52.8049 315.061 54.0868 315.385L54.5777 313.447ZM51.683 312.577C51.0737 312.331 50.5522 311.964 50.1095 311.469L48.619 312.803C49.2644 313.524 50.0388 314.069 50.9335 314.431L51.683 312.577ZM50.1193 311.48C49.7908 311.102 49.5723 310.535 49.5723 309.664H47.5723C47.5723 310.873 47.8818 311.954 48.6092 312.792L50.1193 311.48ZM49.5723 309.664C49.5723 309.003 49.7436 308.426 50.0823 307.906L48.4063 306.814C47.8489 307.67 47.5723 308.629 47.5723 309.664H49.5723ZM50.0879 307.897C50.4099 307.391 50.9284 306.946 51.7173 306.593L50.8992 304.767C49.8321 305.246 48.9746 305.921 48.4006 306.823L50.0879 307.897ZM51.7173 306.593C52.4797 306.251 53.4822 306.056 54.7643 306.056V304.056C53.2943 304.056 51.9928 304.277 50.8992 304.767L51.7173 306.593ZM54.7643 306.056C55.6283 306.056 56.468 306.178 57.2864 306.422L57.8581 304.506C56.8525 304.206 55.8202 304.056 54.7643 304.056V306.056ZM57.3063 306.428C58.1452 306.659 58.839 306.977 59.4041 307.367L60.5404 305.721C59.7615 305.183 58.8553 304.781 57.8382 304.5L57.3063 306.428ZM59.0515 306.154L58.4515 307.57L60.293 308.35L60.893 306.934L59.0515 306.154ZM59.9226 307.125C59.1335 306.605 58.287 306.217 57.3859 305.965L56.8466 307.891C57.5455 308.087 58.203 308.387 58.8219 308.795L59.9226 307.125ZM57.4036 305.97C56.5185 305.705 55.6377 305.568 54.7643 305.568V307.568C55.4268 307.568 56.114 307.671 56.8289 307.886L57.4036 305.97ZM54.7643 305.568C53.1868 305.568 51.8198 305.872 50.8202 306.638L52.0363 308.226C52.5407 307.84 53.3977 307.568 54.7643 307.568V305.568ZM50.8227 306.636C49.8475 307.378 49.3243 308.396 49.3243 309.616H51.3243C51.3243 309.044 51.537 308.606 52.0338 308.228L50.8227 306.636ZM49.3243 309.616C49.3243 310.501 49.595 311.308 50.2034 311.941L51.6451 310.555C51.4535 310.356 51.3243 310.075 51.3243 309.616H49.3243ZM50.2311 311.969C50.7582 312.476 51.3929 312.856 52.1146 313.122L52.806 311.246C52.3116 311.064 51.9223 310.82 51.6174 310.527L50.2311 311.969ZM52.144 313.133C52.8042 313.353 53.6652 313.592 54.7172 313.851L55.1953 311.909C54.1674 311.656 53.3643 311.431 52.7765 311.235L52.144 313.133ZM54.7167 313.851C55.9252 314.149 56.8667 314.44 57.5575 314.719L58.307 312.865C57.4938 312.536 56.4513 312.219 55.1958 311.909L54.7167 313.851ZM57.5811 314.728C58.1963 314.959 58.7045 315.312 59.1212 315.792L60.6313 314.48C59.992 313.744 59.2043 313.201 58.2834 312.856L57.5811 314.728ZM59.13 315.802C59.4516 316.162 59.6683 316.708 59.6683 317.56H61.6683C61.6683 316.364 61.357 315.294 60.6226 314.47L59.13 315.802ZM59.6683 317.56C59.6683 318.214 59.493 318.798 59.1373 319.338L60.8072 320.438C61.3795 319.57 61.6683 318.602 61.6683 317.56H59.6683ZM59.1343 319.342C58.8164 319.83 58.2928 320.271 57.481 320.629L58.2875 322.459C59.3637 321.985 60.2321 321.322 60.8103 320.434L59.1343 319.342ZM57.4941 320.623C56.708 320.956 55.6895 321.144 54.4043 321.144V323.144C55.871 323.144 57.1725 322.932 58.2744 322.465L57.4941 320.623ZM68.2875 306.736H69.2875V305.736H68.2875V306.736ZM62.3835 306.736H61.3835V307.736H62.3835V306.736ZM62.3835 305.2V304.2H61.3835V305.2H62.3835ZM75.9675 305.2H76.9675V304.2H75.9675V305.2ZM75.9675 306.736V307.736H76.9675V306.736H75.9675ZM70.0635 306.736V305.736H69.0635V306.736H70.0635ZM70.0635 322V323H71.0635V322H70.0635ZM68.2875 322H67.2875V323H68.2875V322ZM68.2875 305.736H62.3835V307.736H68.2875V305.736ZM63.3835 306.736V305.2H61.3835V306.736H63.3835ZM62.3835 306.2H75.9675V304.2H62.3835V306.2ZM74.9675 305.2V306.736H76.9675V305.2H74.9675ZM75.9675 305.736H70.0635V307.736H75.9675V305.736ZM69.0635 306.736V322H71.0635V306.736H69.0635ZM70.0635 321H68.2875V323H70.0635V321ZM69.2875 322V306.736H67.2875V322H69.2875ZM91.4048 320.464H92.4048V319.464H91.4048V320.464ZM91.4048 322V323H92.4048V322H91.4048ZM79.5248 322H78.5248V323H79.5248V322ZM79.5248 305.2V304.2H78.5248V305.2H79.5248ZM91.0448 305.2H92.0448V304.2H91.0448V305.2ZM91.0448 306.736V307.736H92.0448V306.736H91.0448ZM81.3008 306.736V305.736H80.3008V306.736H81.3008ZM81.3008 312.712H80.3008V313.712H81.3008V312.712ZM89.9888 312.712H90.9888V311.712H89.9888V312.712ZM89.9888 314.224V315.224H90.9888V314.224H89.9888ZM81.3008 314.224V313.224H80.3008V314.224H81.3008ZM81.3008 320.464H80.3008V321.464H81.3008V320.464ZM90.4048 320.464V322H92.4048V320.464H90.4048ZM91.4048 321H79.5248V323H91.4048V321ZM80.5248 322V305.2H78.5248V322H80.5248ZM79.5248 306.2H91.0448V304.2H79.5248V306.2ZM90.0448 305.2V306.736H92.0448V305.2H90.0448ZM91.0448 305.736H81.3008V307.736H91.0448V305.736ZM80.3008 306.736V312.712H82.3008V306.736H80.3008ZM81.3008 313.712H89.9888V311.712H81.3008V313.712ZM88.9888 312.712V314.224H90.9888V312.712H88.9888ZM89.9888 313.224H81.3008V315.224H89.9888V313.224ZM80.3008 314.224V320.464H82.3008V314.224H80.3008ZM81.3008 321.464H91.4048V319.464H81.3008V321.464ZM107.771 322L106.956 322.58L107.255 323H107.771V322ZM103.931 316.6L104.746 316.02L104.406 315.541L103.821 315.606L103.931 316.6ZM98.0754 316.672V315.672H97.0754V316.672H98.0754ZM98.0754 322V323H99.0754V322H98.0754ZM96.2994 322H95.2994V323H96.2994V322ZM96.2994 305.2V304.2H95.2994V305.2H96.2994ZM107.627 306.736L106.983 307.501V307.501L107.627 306.736ZM108.443 314.296L107.638 313.703L107.637 313.705L108.443 314.296ZM105.611 316.24L105.303 315.289L104.006 315.71L104.797 316.82L105.611 316.24ZM109.715 322V323H111.656L110.53 321.42L109.715 322ZM106.355 314.056L106.997 314.823L106.355 314.056ZM106.355 307.84L105.714 308.607L105.722 308.614L106.355 307.84ZM98.0754 306.736V305.736H97.0754V306.736H98.0754ZM98.0754 315.16H97.0754V316.16H98.0754V315.16ZM108.586 321.42L104.746 316.02L103.116 317.18L106.956 322.58L108.586 321.42ZM103.821 315.606C103.428 315.65 103.017 315.672 102.587 315.672V317.672C103.086 317.672 103.571 317.646 104.042 317.594L103.821 315.606ZM102.587 315.672H98.0754V317.672H102.587V315.672ZM97.0754 316.672V322H99.0754V316.672H97.0754ZM98.0754 321H96.2994V323H98.0754V321ZM97.2994 322V305.2H95.2994V322H97.2994ZM96.2994 306.2H102.587V304.2H96.2994V306.2ZM102.587 306.2C104.578 306.2 106.002 306.675 106.983 307.501L108.272 305.971C106.821 304.749 104.885 304.2 102.587 304.2V306.2ZM106.983 307.501C107.943 308.309 108.451 309.421 108.451 310.96H110.451C110.451 308.915 109.744 307.211 108.272 305.971L106.983 307.501ZM108.451 310.96C108.451 312.094 108.164 312.989 107.638 313.703L109.248 314.889C110.066 313.779 110.451 312.45 110.451 310.96H108.451ZM107.637 313.705C107.124 314.405 106.369 314.943 105.303 315.289L105.92 317.191C107.318 316.737 108.451 315.979 109.25 314.887L107.637 313.705ZM104.797 316.82L108.901 322.58L110.53 321.42L106.426 315.66L104.797 316.82ZM109.715 321H107.771V323H109.715V321ZM102.539 316.16C104.335 316.16 105.871 315.765 106.997 314.823L105.714 313.289C105.08 313.819 104.072 314.16 102.539 314.16V316.16ZM106.997 314.823C108.141 313.866 108.675 312.532 108.675 310.96H106.675C106.675 312.044 106.33 312.774 105.714 313.289L106.997 314.823ZM108.675 310.96C108.675 309.365 108.147 308.014 106.989 307.066L105.722 308.614C106.324 309.106 106.675 309.835 106.675 310.96H108.675ZM106.997 307.073C105.871 306.131 104.335 305.736 102.539 305.736V307.736C104.072 307.736 105.08 308.077 105.714 308.607L106.997 307.073ZM102.539 305.736H98.0754V307.736H102.539V305.736ZM97.0754 306.736V315.16H99.0754V306.736H97.0754ZM98.0754 316.16H102.539V314.16H98.0754V316.16ZM115.395 321.544L115.063 322.487L115.067 322.489L115.395 321.544ZM112.755 319.96L111.864 319.507L111.543 320.137L112.031 320.649L112.755 319.96ZM113.451 318.592L114.158 317.885L113.184 316.911L112.56 318.139L113.451 318.592ZM115.875 320.08L115.519 321.015L115.532 321.019L115.875 320.08ZM122.379 319.816L122.965 320.626L122.976 320.618L122.379 319.816ZM122.883 316.048L122.176 316.755L122.183 316.762L122.19 316.769L122.883 316.048ZM121.395 315.136L121.041 316.071L121.052 316.076L121.064 316.079L121.395 315.136ZM118.923 314.416L118.678 315.385L118.688 315.388L118.923 314.416ZM115.899 313.504L115.524 314.431L115.533 314.435L115.542 314.438L115.899 313.504ZM113.955 312.136L113.2 312.792L113.205 312.797L113.21 312.803L113.955 312.136ZM113.835 307.36L114.673 307.906L114.679 307.897L113.835 307.36ZM115.899 305.68L116.308 306.593L115.899 305.68ZM122.163 305.464L121.877 306.422L121.887 306.425L121.897 306.428L122.163 305.464ZM124.563 306.544L125.484 306.934L125.802 306.184L125.131 305.721L124.563 306.544ZM123.963 307.96L123.413 308.795L124.415 309.456L124.884 308.35L123.963 307.96ZM121.707 306.928L121.42 307.886L121.429 307.888L121.438 307.891L121.707 306.928ZM116.019 307.432L116.625 308.228L116.627 308.226L116.019 307.432ZM115.515 311.248L114.794 311.941L114.808 311.955L114.822 311.969L115.515 311.248ZM117.051 312.184L116.705 313.122L116.72 313.128L116.735 313.133L117.051 312.184ZM119.547 312.88L119.787 311.909L119.786 311.909L119.547 312.88ZM122.523 313.792L122.148 314.719L122.16 314.724L122.172 314.728L122.523 313.792ZM124.467 315.136L123.712 315.792L123.721 315.802L124.467 315.136ZM124.563 319.888L123.728 319.338L123.725 319.342L124.563 319.888ZM122.475 321.544L122.865 322.465L122.872 322.462L122.878 322.459L122.475 321.544ZM118.995 321.144C117.856 321.144 116.767 320.962 115.723 320.599L115.067 322.489C116.327 322.926 117.638 323.144 118.995 323.144V321.144ZM115.727 320.601C114.693 320.237 113.965 319.781 113.48 319.271L112.031 320.649C112.793 321.451 113.825 322.051 115.063 322.487L115.727 320.601ZM113.646 320.413L114.342 319.045L112.56 318.139L111.864 319.507L113.646 320.413ZM112.744 319.299C113.474 320.029 114.412 320.593 115.519 321.014L116.231 319.146C115.322 318.799 114.645 318.371 114.158 317.885L112.744 319.299ZM115.532 321.019C116.65 321.427 117.806 321.632 118.995 321.632V319.632C118.04 319.632 117.116 319.469 116.218 319.141L115.532 321.019ZM118.995 321.632C120.59 321.632 121.966 321.349 122.965 320.626L121.793 319.006C121.288 319.371 120.409 319.632 118.995 319.632V321.632ZM122.976 320.618C123.963 319.884 124.507 318.875 124.507 317.656H122.507C122.507 318.197 122.3 318.628 121.782 319.014L122.976 320.618ZM124.507 317.656C124.507 316.761 124.221 315.947 123.576 315.327L122.19 316.769C122.378 316.949 122.507 317.207 122.507 317.656H124.507ZM123.59 315.341C123.073 314.824 122.444 314.445 121.727 314.193L121.064 316.079C121.53 316.243 121.893 316.472 122.176 316.755L123.59 315.341ZM121.749 314.201C121.101 313.955 120.231 313.704 119.159 313.444L118.688 315.388C119.727 315.64 120.506 315.869 121.041 316.071L121.749 314.201ZM119.169 313.447C117.923 313.131 116.957 312.838 116.257 312.57L115.542 314.438C116.346 314.746 117.396 315.061 118.678 315.385L119.169 313.447ZM116.274 312.577C115.665 312.331 115.143 311.964 114.7 311.469L113.21 312.803C113.855 313.524 114.63 314.069 115.524 314.431L116.274 312.577ZM114.71 311.48C114.382 311.102 114.163 310.535 114.163 309.664H112.163C112.163 310.873 112.473 311.954 113.2 312.792L114.71 311.48ZM114.163 309.664C114.163 309.003 114.335 308.426 114.673 307.906L112.997 306.814C112.44 307.67 112.163 308.629 112.163 309.664H114.163ZM114.679 307.897C115.001 307.391 115.519 306.946 116.308 306.593L115.49 304.767C114.423 305.246 113.566 305.921 112.992 306.823L114.679 307.897ZM116.308 306.593C117.071 306.251 118.073 306.056 119.355 306.056V304.056C117.885 304.056 116.584 304.277 115.49 304.767L116.308 306.593ZM119.355 306.056C120.219 306.056 121.059 306.178 121.877 306.422L122.449 304.506C121.443 304.206 120.411 304.056 119.355 304.056V306.056ZM121.897 306.428C122.736 306.659 123.43 306.977 123.995 307.367L125.131 305.721C124.352 305.183 123.446 304.781 122.429 304.5L121.897 306.428ZM123.642 306.154L123.042 307.57L124.884 308.35L125.484 306.934L123.642 306.154ZM124.514 307.125C123.724 306.605 122.878 306.217 121.977 305.965L121.438 307.891C122.136 308.087 122.794 308.387 123.413 308.795L124.514 307.125ZM121.995 305.97C121.109 305.705 120.229 305.568 119.355 305.568V307.568C120.018 307.568 120.705 307.671 121.42 307.886L121.995 305.97ZM119.355 305.568C117.778 305.568 116.411 305.872 115.411 306.638L116.627 308.226C117.132 307.84 117.989 307.568 119.355 307.568V305.568ZM115.414 306.636C114.438 307.378 113.915 308.396 113.915 309.616H115.915C115.915 309.044 116.128 308.606 116.625 308.228L115.414 306.636ZM113.915 309.616C113.915 310.501 114.186 311.308 114.794 311.941L116.236 310.555C116.044 310.356 115.915 310.075 115.915 309.616H113.915ZM114.822 311.969C115.349 312.476 115.984 312.856 116.705 313.122L117.397 311.246C116.903 311.064 116.513 310.82 116.208 310.527L114.822 311.969ZM116.735 313.133C117.395 313.353 118.256 313.592 119.308 313.851L119.786 311.909C118.758 311.656 117.955 311.431 117.367 311.235L116.735 313.133ZM119.308 313.851C120.516 314.149 121.458 314.44 122.148 314.719L122.898 312.865C122.085 312.536 121.042 312.219 119.787 311.909L119.308 313.851ZM122.172 314.728C122.787 314.959 123.295 315.312 123.712 315.792L125.222 314.48C124.583 313.744 123.795 313.201 122.874 312.856L122.172 314.728ZM123.721 315.802C124.042 316.162 124.259 316.708 124.259 317.56H126.259C126.259 316.364 125.948 315.294 125.213 314.47L123.721 315.802ZM124.259 317.56C124.259 318.214 124.084 318.798 123.728 319.338L125.398 320.438C125.97 319.57 126.259 318.602 126.259 317.56H124.259ZM123.725 319.342C123.407 319.83 122.884 320.271 122.072 320.629L122.878 322.459C123.955 321.985 124.823 321.322 125.401 320.434L123.725 319.342ZM122.085 320.623C121.299 320.956 120.28 321.144 118.995 321.144V323.144C120.462 323.144 121.763 322.932 122.865 322.465L122.085 320.623ZM139.658 321.04L139.17 321.913L139.182 321.919L139.658 321.04ZM136.49 317.968L135.625 318.47L135.63 318.478L136.49 317.968ZM136.49 309.232L135.63 308.722L135.625 308.73L136.49 309.232ZM139.658 306.184L140.138 307.061L140.142 307.059L139.658 306.184ZM148.682 306.16L148.197 307.035L148.202 307.037L148.682 306.16ZM151.85 309.232L150.987 309.737L150.99 309.742L151.85 309.232ZM151.85 317.992L152.71 318.502L152.713 318.497L151.85 317.992ZM148.682 321.04L148.202 320.163L148.197 320.165L148.682 321.04ZM147.794 319.672L148.278 320.547L148.287 320.542L147.794 319.672ZM150.314 317.176L151.181 317.675L151.184 317.669L150.314 317.176ZM150.314 310.048L149.444 310.541L149.447 310.547L150.314 310.048ZM147.794 307.552L147.301 308.422L147.311 308.427L147.794 307.552ZM140.57 307.552L141.053 308.427L141.058 308.425L140.57 307.552ZM138.026 310.048L137.162 309.545L137.159 309.549L138.026 310.048ZM138.026 317.176L137.156 317.669L137.161 317.677L137.165 317.685L138.026 317.176ZM140.57 319.672L140.077 320.542L140.084 320.546L140.092 320.55L140.57 319.672ZM144.194 321.144C142.683 321.144 141.337 320.811 140.134 320.161L139.182 321.919C140.699 322.741 142.377 323.144 144.194 323.144V321.144ZM140.146 320.167C138.953 319.499 138.026 318.599 137.35 317.458L135.63 318.478C136.49 319.929 137.676 321.077 139.17 321.913L140.146 320.167ZM137.355 317.466C136.698 316.334 136.362 315.054 136.362 313.6H134.362C134.362 315.378 134.778 317.01 135.625 318.47L137.355 317.466ZM136.362 313.6C136.362 312.146 136.698 310.866 137.355 309.734L135.625 308.73C134.778 310.19 134.362 311.822 134.362 313.6H136.362ZM137.35 309.742C138.025 308.603 138.949 307.713 140.138 307.061L139.178 305.307C137.679 306.127 136.491 307.269 135.63 308.722L137.35 309.742ZM140.142 307.059C141.343 306.395 142.687 306.056 144.194 306.056V304.056C142.373 304.056 140.693 304.469 139.174 305.309L140.142 307.059ZM144.194 306.056C145.705 306.056 147.032 306.389 148.197 307.035L149.167 305.285C147.677 304.459 146.011 304.056 144.194 304.056V306.056ZM148.202 307.037C149.388 307.687 150.311 308.583 150.987 309.737L152.713 308.727C151.853 307.257 150.664 306.105 149.162 305.283L148.202 307.037ZM150.99 309.742C151.66 310.872 152.002 312.15 152.002 313.6H154.002C154.002 311.818 153.576 310.184 152.71 308.722L150.99 309.742ZM152.002 313.6C152.002 315.05 151.66 316.338 150.987 317.487L152.713 318.497C153.576 317.022 154.002 315.382 154.002 313.6H152.002ZM150.99 317.482C150.315 318.621 149.391 319.511 148.202 320.163L149.162 321.917C150.661 321.097 151.849 319.955 152.71 318.502L150.99 317.482ZM148.197 320.165C147.032 320.811 145.705 321.144 144.194 321.144V323.144C146.011 323.144 147.677 322.741 149.167 321.915L148.197 320.165ZM144.194 321.56C145.676 321.56 147.045 321.228 148.277 320.547L147.311 318.797C146.399 319.3 145.368 319.56 144.194 319.56V321.56ZM148.287 320.542C149.513 319.847 150.483 318.888 151.181 317.675L149.447 316.677C148.93 317.576 148.219 318.281 147.301 318.802L148.287 320.542ZM151.184 317.669C151.883 316.437 152.226 315.073 152.226 313.6H150.226C150.226 314.751 149.961 315.771 149.444 316.683L151.184 317.669ZM152.226 313.6C152.226 312.127 151.883 310.768 151.181 309.549L149.447 310.547C149.961 311.44 150.226 312.449 150.226 313.6H152.226ZM151.184 309.555C150.485 308.323 149.512 307.358 148.277 306.677L147.311 308.427C148.22 308.93 148.927 309.629 149.444 310.541L151.184 309.555ZM148.287 306.682C147.053 305.982 145.681 305.64 144.194 305.64V307.64C145.363 307.64 146.391 307.906 147.301 308.422L148.287 306.682ZM144.194 305.64C142.707 305.64 141.329 305.982 140.082 306.679L141.058 308.425C141.987 307.906 143.025 307.64 144.194 307.64V305.64ZM140.087 306.677C138.854 307.357 137.876 308.319 137.162 309.545L138.89 310.551C139.425 309.633 140.142 308.931 141.053 308.427L140.087 306.677ZM137.159 309.549C136.457 310.768 136.114 312.127 136.114 313.6H138.114C138.114 312.449 138.379 311.44 138.893 310.547L137.159 309.549ZM136.114 313.6C136.114 315.073 136.457 316.437 137.156 317.669L138.896 316.683C138.379 315.771 138.114 314.751 138.114 313.6H136.114ZM137.165 317.685C137.878 318.892 138.854 319.848 140.077 320.542L141.063 318.802C140.143 318.28 139.422 317.572 138.887 316.667L137.165 317.685ZM140.092 320.55C141.337 321.228 142.712 321.56 144.194 321.56V319.56C143.021 319.56 141.979 319.3 141.048 318.794L140.092 320.55ZM159.479 306.736V305.736H158.479V306.736H159.479ZM159.479 313.336H158.479V314.336H159.479V313.336ZM168.167 313.336H169.167V312.336H168.167V313.336ZM168.167 314.872V315.872H169.167V314.872H168.167ZM159.479 314.872V313.872H158.479V314.872H159.479ZM159.479 322V323H160.479V322H159.479ZM157.703 322H156.703V323H157.703V322ZM157.703 305.2V304.2H156.703V305.2H157.703ZM169.223 305.2H170.223V304.2H169.223V305.2ZM169.223 306.736V307.736H170.223V306.736H169.223ZM158.479 306.736V313.336H160.479V306.736H158.479ZM159.479 314.336H168.167V312.336H159.479V314.336ZM167.167 313.336V314.872H169.167V313.336H167.167ZM168.167 313.872H159.479V315.872H168.167V313.872ZM158.479 314.872V322H160.479V314.872H158.479ZM159.479 321H157.703V323H159.479V321ZM158.703 322V305.2H156.703V322H158.703ZM157.703 306.2H169.223V304.2H157.703V306.2ZM168.223 305.2V306.736H170.223V305.2H168.223ZM169.223 305.736H159.479V307.736H169.223V305.736ZM180.612 305.2V304.2H179.612V305.2H180.612ZM182.388 305.2H183.388V304.2H182.388V305.2ZM182.388 322V323H183.388V322H182.388ZM180.612 322H179.612V323H180.612V322ZM180.612 306.2H182.388V304.2H180.612V306.2ZM181.388 305.2V322H183.388V305.2H181.388ZM182.388 321H180.612V323H182.388V321ZM181.612 322V305.2H179.612V322H181.612ZM189.606 321.544L189.274 322.487L189.278 322.489L189.606 321.544ZM186.966 319.96L186.075 319.507L185.754 320.137L186.241 320.649L186.966 319.96ZM187.662 318.592L188.369 317.885L187.395 316.911L186.771 318.139L187.662 318.592ZM190.086 320.08L189.73 321.015L189.743 321.019L190.086 320.08ZM196.59 319.816L197.176 320.626L197.187 320.618L196.59 319.816ZM197.094 316.048L196.387 316.755L196.394 316.762L196.401 316.769L197.094 316.048ZM195.606 315.136L195.252 316.071L195.263 316.076L195.274 316.079L195.606 315.136ZM193.134 314.416L192.888 315.385L192.898 315.388L193.134 314.416ZM190.11 313.504L189.735 314.431L189.744 314.435L189.752 314.438L190.11 313.504ZM188.166 312.136L187.411 312.792L187.416 312.797L187.421 312.803L188.166 312.136ZM188.046 307.36L188.884 307.906L188.889 307.897L188.046 307.36ZM190.11 305.68L190.519 306.593L190.11 305.68ZM196.374 305.464L196.088 306.422L196.098 306.425L196.108 306.428L196.374 305.464ZM198.774 306.544L199.695 306.934L200.012 306.184L199.342 305.721L198.774 306.544ZM198.174 307.96L197.624 308.795L198.626 309.456L199.095 308.35L198.174 307.96ZM195.918 306.928L195.63 307.886L195.639 307.888L195.648 307.891L195.918 306.928ZM190.23 307.432L190.835 308.228L190.838 308.226L190.23 307.432ZM189.726 311.248L189.005 311.941L189.019 311.955L189.033 311.969L189.726 311.248ZM191.262 312.184L190.916 313.122L190.931 313.128L190.946 313.133L191.262 312.184ZM193.758 312.88L193.997 311.909L193.997 311.909L193.758 312.88ZM196.734 313.792L196.359 314.719L196.371 314.724L196.383 314.728L196.734 313.792ZM198.678 315.136L197.923 315.792L197.932 315.802L198.678 315.136ZM198.774 319.888L197.939 319.338L197.936 319.342L198.774 319.888ZM196.686 321.544L197.076 322.465L197.083 322.462L197.089 322.459L196.686 321.544ZM193.206 321.144C192.067 321.144 190.978 320.962 189.934 320.599L189.278 322.489C190.538 322.926 191.849 323.144 193.206 323.144V321.144ZM189.938 320.601C188.904 320.237 188.176 319.781 187.69 319.271L186.241 320.649C187.004 321.451 188.036 322.051 189.274 322.487L189.938 320.601ZM187.857 320.413L188.553 319.045L186.771 318.139L186.075 319.507L187.857 320.413ZM186.955 319.299C187.684 320.029 188.623 320.593 189.73 321.014L190.442 319.146C189.533 318.799 188.855 318.371 188.369 317.885L186.955 319.299ZM189.743 321.019C190.861 321.427 192.017 321.632 193.206 321.632V319.632C192.251 319.632 191.327 319.469 190.429 319.141L189.743 321.019ZM193.206 321.632C194.801 321.632 196.177 321.349 197.176 320.626L196.004 319.006C195.499 319.371 194.619 319.632 193.206 319.632V321.632ZM197.187 320.618C198.173 319.884 198.718 318.875 198.718 317.656H196.718C196.718 318.197 196.51 318.628 195.993 319.014L197.187 320.618ZM198.718 317.656C198.718 316.761 198.431 315.947 197.787 315.327L196.401 316.769C196.588 316.949 196.718 317.207 196.718 317.656H198.718ZM197.801 315.341C197.284 314.824 196.655 314.445 195.937 314.193L195.274 316.079C195.741 316.243 196.104 316.472 196.387 316.755L197.801 315.341ZM195.96 314.201C195.311 313.955 194.442 313.704 193.369 313.444L192.898 315.388C193.938 315.64 194.716 315.869 195.252 316.071L195.96 314.201ZM193.379 313.447C192.133 313.131 191.167 312.838 190.467 312.57L189.752 314.438C190.556 314.746 191.607 315.061 192.888 315.385L193.379 313.447ZM190.485 312.577C189.875 312.331 189.354 311.964 188.911 311.469L187.421 312.803C188.066 313.524 188.84 314.069 189.735 314.431L190.485 312.577ZM188.921 311.48C188.592 311.102 188.374 310.535 188.374 309.664H186.374C186.374 310.873 186.683 311.954 187.411 312.792L188.921 311.48ZM188.374 309.664C188.374 309.003 188.545 308.426 188.884 307.906L187.208 306.814C186.65 307.67 186.374 308.629 186.374 309.664H188.374ZM188.889 307.897C189.211 307.391 189.73 306.946 190.519 306.593L189.701 304.767C188.634 305.246 187.776 305.921 187.202 306.823L188.889 307.897ZM190.519 306.593C191.281 306.251 192.284 306.056 193.566 306.056V304.056C192.096 304.056 190.794 304.277 189.701 304.767L190.519 306.593ZM193.566 306.056C194.43 306.056 195.27 306.178 196.088 306.422L196.66 304.506C195.654 304.206 194.622 304.056 193.566 304.056V306.056ZM196.108 306.428C196.947 306.659 197.641 306.977 198.206 307.367L199.342 305.721C198.563 305.183 197.657 304.781 196.64 304.5L196.108 306.428ZM197.853 306.154L197.253 307.57L199.095 308.35L199.695 306.934L197.853 306.154ZM198.724 307.125C197.935 306.605 197.089 306.217 196.187 305.965L195.648 307.891C196.347 308.087 197.005 308.387 197.624 308.795L198.724 307.125ZM196.205 305.97C195.32 305.705 194.439 305.568 193.566 305.568V307.568C194.228 307.568 194.916 307.671 195.63 307.886L196.205 305.97ZM193.566 305.568C191.988 305.568 190.621 305.872 189.622 306.638L190.838 308.226C191.342 307.84 192.199 307.568 193.566 307.568V305.568ZM189.624 306.636C188.649 307.378 188.126 308.396 188.126 309.616H190.126C190.126 309.044 190.339 308.606 190.835 308.228L189.624 306.636ZM188.126 309.616C188.126 310.501 188.397 311.308 189.005 311.941L190.447 310.555C190.255 310.356 190.126 310.075 190.126 309.616H188.126ZM189.033 311.969C189.56 312.476 190.194 312.856 190.916 313.122L191.608 311.246C191.113 311.064 190.724 310.82 190.419 310.527L189.033 311.969ZM190.946 313.133C191.606 313.353 192.467 313.592 193.519 313.851L193.997 311.909C192.969 311.656 192.166 311.431 191.578 311.235L190.946 313.133ZM193.518 313.851C194.727 314.149 195.668 314.44 196.359 314.719L197.109 312.865C196.295 312.536 195.253 312.219 193.997 311.909L193.518 313.851ZM196.383 314.728C196.998 314.959 197.506 315.312 197.923 315.792L199.433 314.48C198.794 313.744 198.006 313.201 197.085 312.856L196.383 314.728ZM197.932 315.802C198.253 316.162 198.47 316.708 198.47 317.56H200.47C200.47 316.364 200.159 315.294 199.424 314.47L197.932 315.802ZM198.47 317.56C198.47 318.214 198.295 318.798 197.939 319.338L199.609 320.438C200.181 319.57 200.47 318.602 200.47 317.56H198.47ZM197.936 319.342C197.618 319.83 197.094 320.271 196.283 320.629L197.089 322.459C198.165 321.985 199.034 321.322 199.612 320.434L197.936 319.342ZM196.296 320.623C195.51 320.956 194.491 321.144 193.206 321.144V323.144C194.673 323.144 195.974 322.932 197.076 322.465L196.296 320.623ZM204.059 305.2V304.2H203.059V305.2H204.059ZM205.835 305.2H206.835V304.2H205.835V305.2ZM205.835 320.464H204.835V321.464H205.835V320.464ZM215.243 320.464H216.243V319.464H215.243V320.464ZM215.243 322V323H216.243V322H215.243ZM204.059 322H203.059V323H204.059V322ZM204.059 306.2H205.835V304.2H204.059V306.2ZM204.835 305.2V320.464H206.835V305.2H204.835ZM205.835 321.464H215.243V319.464H205.835V321.464ZM214.243 320.464V322H216.243V320.464H214.243ZM215.243 321H204.059V323H215.243V321ZM205.059 322V305.2H203.059V322H205.059ZM229.495 317.512L230.407 317.102L230.142 316.512H229.495V317.512ZM220.135 317.512V316.512H219.488L219.223 317.102L220.135 317.512ZM218.119 322V323H218.766L219.031 322.41L218.119 322ZM216.271 322L215.362 321.584L214.714 323H216.271V322ZM223.951 305.2V304.2H223.309L223.042 304.784L223.951 305.2ZM225.703 305.2L226.613 304.784L226.346 304.2H225.703V305.2ZM233.383 322V323H234.94L234.293 321.584L233.383 322ZM231.511 322L230.599 322.41L230.864 323H231.511V322ZM228.847 316.072V317.072H230.389L229.76 315.664L228.847 316.072ZM224.815 307.048L225.728 306.64L224.815 304.597L223.902 306.64L224.815 307.048ZM220.783 316.072L219.87 315.664L219.241 317.072H220.783V316.072ZM229.495 316.512H220.135V318.512H229.495V316.512ZM219.223 317.102L217.207 321.59L219.031 322.41L221.047 317.922L219.223 317.102ZM218.119 321H216.271V323H218.119V321ZM217.181 322.416L224.861 305.616L223.042 304.784L215.362 321.584L217.181 322.416ZM223.951 306.2H225.703V304.2H223.951V306.2ZM224.794 305.616L232.474 322.416L234.293 321.584L226.613 304.784L224.794 305.616ZM233.383 321H231.511V323H233.383V321ZM232.423 321.59L230.407 317.102L228.583 317.922L230.599 322.41L232.423 321.59ZM229.76 315.664L225.728 306.64L223.902 307.456L227.934 316.48L229.76 315.664ZM223.902 306.64L219.87 315.664L221.696 316.48L225.728 307.456L223.902 306.64ZM220.783 317.072H228.847V315.072H220.783V317.072ZM254.33 305.2H255.33V304.2H254.33V305.2ZM254.33 322V323H255.33V322H254.33ZM252.626 322H251.626V323H252.626V322ZM252.626 308.56H253.626V304.864L251.763 308.056L252.626 308.56ZM246.026 319.864V320.864H246.6L246.89 320.368L246.026 319.864ZM245.186 319.864L244.324 320.371L244.614 320.864H245.186V319.864ZM238.586 308.632L239.448 308.125L237.586 304.956V308.632H238.586ZM238.586 322V323H239.586V322H238.586ZM236.882 322H235.882V323H236.882V322ZM236.882 305.2V304.2H235.882V305.2H236.882ZM238.346 305.2L239.209 304.695L238.919 304.2H238.346V305.2ZM245.642 317.656L244.779 318.161L245.647 319.642L246.507 318.158L245.642 317.656ZM252.866 305.2V304.2H252.29L252.001 304.698L252.866 305.2ZM253.33 305.2V322H255.33V305.2H253.33ZM254.33 321H252.626V323H254.33V321ZM253.626 322V308.56H251.626V322H253.626ZM251.763 308.056L245.163 319.36L246.89 320.368L253.49 309.064L251.763 308.056ZM246.026 318.864H245.186V320.864H246.026V318.864ZM246.048 319.357L239.448 308.125L237.724 309.139L244.324 320.371L246.048 319.357ZM237.586 308.632V322H239.586V308.632H237.586ZM238.586 321H236.882V323H238.586V321ZM237.882 322V305.2H235.882V322H237.882ZM236.882 306.2H238.346V304.2H236.882V306.2ZM237.483 305.705L244.779 318.161L246.505 317.151L239.209 304.695L237.483 305.705ZM246.507 318.158L253.731 305.702L252.001 304.698L244.777 317.154L246.507 318.158ZM252.866 306.2H254.33V304.2H252.866V306.2ZM284.445 323.416L285.218 324.05L285.744 323.41L285.212 322.774L284.445 323.416ZM282.621 324.832L282.208 323.922L282.195 323.927L282.183 323.933L282.621 324.832ZM277.533 324.592L278.018 323.717L278.012 323.714L277.533 324.592ZM274.557 322.144L275.279 321.452L274.996 321.157L274.587 321.144L274.557 322.144ZM270.189 320.944L269.688 321.809L270.189 320.944ZM267.141 317.896L266.274 318.394L267.141 317.896ZM267.165 309.232L266.305 308.722L266.3 308.73L267.165 309.232ZM270.333 306.184L270.814 307.061L270.817 307.059L270.333 306.184ZM279.357 306.16L278.873 307.035L278.877 307.037L279.357 306.16ZM282.525 309.232L281.662 309.737L281.665 309.742L282.525 309.232ZM282.789 317.488L281.895 317.041L281.892 317.046L282.789 317.488ZM280.341 320.416L279.745 319.613L279.739 319.617L280.341 320.416ZM276.741 321.976L276.556 320.993L274.751 321.333L276.017 322.665L276.741 321.976ZM283.581 322.384L284.348 321.742L283.591 320.838L282.823 321.732L283.581 322.384ZM268.701 317.152L267.835 317.651L267.84 317.661L268.701 317.152ZM271.245 319.648L270.752 320.518L270.758 320.521L271.245 319.648ZM278.469 319.648L278.963 320.518L278.469 319.648ZM280.989 317.152L280.123 316.653V316.653L280.989 317.152ZM280.989 310.048L280.123 310.547V310.547L280.989 310.048ZM278.469 307.552L278.963 306.682V306.682L278.469 307.552ZM271.245 307.552L270.758 306.679L270.752 306.682L271.245 307.552ZM268.701 310.048L267.84 309.539L267.835 309.549L268.701 310.048ZM283.672 322.782C283.253 323.293 282.766 323.668 282.208 323.922L283.035 325.742C283.885 325.356 284.614 324.787 285.218 324.05L283.672 322.782ZM282.183 323.933C281.64 324.198 281.04 324.336 280.365 324.336V326.336C281.323 326.336 282.227 326.138 283.06 325.731L282.183 323.933ZM280.365 324.336C279.548 324.336 278.77 324.134 278.018 323.717L277.049 325.467C278.088 326.042 279.198 326.336 280.365 326.336V324.336ZM278.012 323.714C277.259 323.303 276.349 322.568 275.279 321.452L273.835 322.836C274.974 324.024 276.047 324.921 277.055 325.47L278.012 323.714ZM274.587 321.144C273.124 321.101 271.832 320.741 270.691 320.079L269.688 321.809C271.138 322.651 272.759 323.091 274.528 323.144L274.587 321.144ZM270.691 320.079C269.545 319.414 268.655 318.523 268.008 317.398L266.274 318.394C267.099 319.829 268.242 320.97 269.688 321.809L270.691 320.079ZM268.008 317.398C267.366 316.28 267.037 315.022 267.037 313.6H265.037C265.037 315.346 265.445 316.952 266.274 318.394L268.008 317.398ZM267.037 313.6C267.037 312.146 267.374 310.866 268.03 309.734L266.3 308.73C265.453 310.19 265.037 311.822 265.037 313.6H267.037ZM268.026 309.742C268.701 308.603 269.624 307.713 270.814 307.061L269.853 305.307C268.355 306.127 267.166 307.269 266.305 308.722L268.026 309.742ZM270.817 307.059C272.019 306.395 273.362 306.056 274.869 306.056V304.056C273.048 304.056 271.368 304.469 269.849 305.309L270.817 307.059ZM274.869 306.056C276.38 306.056 277.707 306.389 278.873 307.035L279.842 305.285C278.352 304.459 276.686 304.056 274.869 304.056V306.056ZM278.877 307.037C280.063 307.687 280.987 308.583 281.662 309.737L283.388 308.727C282.528 307.257 281.339 306.105 279.838 305.283L278.877 307.037ZM281.665 309.742C282.335 310.872 282.677 312.15 282.677 313.6H284.677C284.677 311.818 284.252 310.184 283.386 308.722L281.665 309.742ZM282.677 313.6C282.677 314.863 282.413 316.004 281.895 317.041L283.684 317.935C284.35 316.604 284.677 315.153 284.677 313.6H282.677ZM281.892 317.046C281.387 318.07 280.675 318.923 279.745 319.613L280.937 321.219C282.12 320.341 283.039 319.242 283.686 317.93L281.892 317.046ZM279.739 319.617C278.83 320.303 277.775 320.764 276.556 320.993L276.926 322.959C278.428 322.676 279.773 322.097 280.943 321.215L279.739 319.617ZM276.017 322.665C277.345 324.062 278.805 324.92 280.389 324.92V322.92C279.573 322.92 278.602 322.482 277.466 321.287L276.017 322.665ZM280.389 324.92C281.955 324.92 283.287 324.26 284.34 323.036L282.823 321.732C282.115 322.556 281.32 322.92 280.389 322.92V324.92ZM282.815 323.026L283.679 324.058L285.212 322.774L284.348 321.742L282.815 323.026ZM266.789 313.6C266.789 315.073 267.133 316.432 267.835 317.651L269.568 316.653C269.054 315.76 268.789 314.751 268.789 313.6H266.789ZM267.84 317.661C268.554 318.868 269.529 319.824 270.752 320.518L271.739 318.778C270.818 318.256 270.097 317.548 269.562 316.643L267.84 317.661ZM270.758 320.521C272.004 321.218 273.382 321.56 274.869 321.56V319.56C273.701 319.56 272.662 319.294 271.733 318.775L270.758 320.521ZM274.869 321.56C276.356 321.56 277.729 321.218 278.963 320.518L277.976 318.778C277.066 319.294 276.038 319.56 274.869 319.56V321.56ZM278.963 320.518C280.188 319.823 281.158 318.864 281.856 317.651L280.123 316.653C279.605 317.552 278.895 318.257 277.976 318.778L278.963 320.518ZM281.856 317.651C282.558 316.432 282.901 315.073 282.901 313.6H280.901C280.901 314.751 280.637 315.76 280.123 316.653L281.856 317.651ZM282.901 313.6C282.901 312.127 282.558 310.768 281.856 309.549L280.123 310.547C280.637 311.44 280.901 312.449 280.901 313.6H282.901ZM281.856 309.549C281.158 308.336 280.188 307.377 278.963 306.682L277.976 308.422C278.895 308.943 279.605 309.648 280.123 310.547L281.856 309.549ZM278.963 306.682C277.729 305.982 276.356 305.64 274.869 305.64V307.64C276.038 307.64 277.066 307.906 277.976 308.422L278.963 306.682ZM274.869 305.64C273.382 305.64 272.004 305.982 270.758 306.679L271.733 308.425C272.662 307.906 273.701 307.64 274.869 307.64V305.64ZM270.752 306.682C269.529 307.376 268.554 308.332 267.84 309.539L269.562 310.557C270.097 309.652 270.818 308.944 271.739 308.422L270.752 306.682ZM267.835 309.549C267.133 310.768 266.789 312.127 266.789 313.6H268.789C268.789 312.449 269.054 311.44 269.568 310.547L267.835 309.549ZM298.68 317.512L299.592 317.102L299.327 316.512H298.68V317.512ZM289.32 317.512V316.512H288.673L288.408 317.102L289.32 317.512ZM287.304 322V323H287.951L288.216 322.41L287.304 322ZM285.456 322L284.546 321.584L283.899 323H285.456V322ZM293.136 305.2V304.2H292.493L292.226 304.784L293.136 305.2ZM294.888 305.2L295.797 304.784L295.53 304.2H294.888V305.2ZM302.568 322V323H304.124L303.477 321.584L302.568 322ZM300.696 322L299.784 322.41L300.049 323H300.696V322ZM298.032 316.072V317.072H299.574L298.945 315.664L298.032 316.072ZM294 307.048L294.913 306.64L294 304.597L293.087 306.64L294 307.048ZM289.968 316.072L289.055 315.664L288.426 317.072H289.968V316.072ZM298.68 316.512H289.32V318.512H298.68V316.512ZM288.408 317.102L286.392 321.59L288.216 322.41L290.232 317.922L288.408 317.102ZM287.304 321H285.456V323H287.304V321ZM286.365 322.416L294.045 305.616L292.226 304.784L284.546 321.584L286.365 322.416ZM293.136 306.2H294.888V304.2H293.136V306.2ZM293.978 305.616L301.658 322.416L303.477 321.584L295.797 304.784L293.978 305.616ZM302.568 321H300.696V323H302.568V321ZM301.608 321.59L299.592 317.102L297.768 317.922L299.784 322.41L301.608 321.59ZM298.945 315.664L294.913 306.64L293.087 307.456L297.119 316.48L298.945 315.664ZM293.087 306.64L289.055 315.664L290.881 316.48L294.913 307.456L293.087 306.64ZM289.968 317.072H298.032V315.072H289.968V317.072ZM308.487 306.736H309.487V305.736H308.487V306.736ZM302.583 306.736H301.583V307.736H302.583V306.736ZM302.583 305.2V304.2H301.583V305.2H302.583ZM316.167 305.2H317.167V304.2H316.167V305.2ZM316.167 306.736V307.736H317.167V306.736H316.167ZM310.263 306.736V305.736H309.263V306.736H310.263ZM310.263 322V323H311.263V322H310.263ZM308.487 322H307.487V323H308.487V322ZM308.487 305.736H302.583V307.736H308.487V305.736ZM303.583 306.736V305.2H301.583V306.736H303.583ZM302.583 306.2H316.167V304.2H302.583V306.2ZM315.167 305.2V306.736H317.167V305.2H315.167ZM316.167 305.736H310.263V307.736H316.167V305.736ZM309.263 306.736V322H311.263V306.736H309.263ZM310.263 321H308.487V323H310.263V321ZM309.487 322V306.736H307.487V322H309.487ZM329.417 317.512L330.329 317.102L330.064 316.512H329.417V317.512ZM320.057 317.512V316.512H319.41L319.145 317.102L320.057 317.512ZM318.041 322V323H318.688L318.953 322.41L318.041 322ZM316.193 322L315.283 321.584L314.636 323H316.193V322ZM323.873 305.2V304.2H323.23L322.963 304.784L323.873 305.2ZM325.625 305.2L326.534 304.784L326.267 304.2H325.625V305.2ZM333.305 322V323H334.861L334.214 321.584L333.305 322ZM331.433 322L330.52 322.41L330.786 323H331.433V322ZM328.769 316.072V317.072H330.311L329.682 315.664L328.769 316.072ZM324.737 307.048L325.65 306.64L324.737 304.597L323.824 306.64L324.737 307.048ZM320.705 316.072L319.792 315.664L319.163 317.072H320.705V316.072ZM329.417 316.512H320.057V318.512H329.417V316.512ZM319.145 317.102L317.128 321.59L318.953 322.41L320.969 317.922L319.145 317.102ZM318.041 321H316.193V323H318.041V321ZM317.102 322.416L324.782 305.616L322.963 304.784L315.283 321.584L317.102 322.416ZM323.873 306.2H325.625V304.2H323.873V306.2ZM324.715 305.616L332.395 322.416L334.214 321.584L326.534 304.784L324.715 305.616ZM333.305 321H331.433V323H333.305V321ZM332.345 321.59L330.329 317.102L328.504 317.922L330.52 322.41L332.345 321.59ZM329.682 315.664L325.65 306.64L323.824 307.456L327.856 316.48L329.682 315.664ZM323.824 306.64L319.792 315.664L321.618 316.48L325.65 307.456L323.824 306.64ZM320.705 317.072H328.769V315.072H320.705V317.072ZM348.276 322L347.461 322.58L347.76 323H348.276V322ZM344.436 316.6L345.251 316.02L344.91 315.541L344.325 315.606L344.436 316.6ZM338.58 316.672V315.672H337.58V316.672H338.58ZM338.58 322V323H339.58V322H338.58ZM336.804 322H335.804V323H336.804V322ZM336.804 305.2V304.2H335.804V305.2H336.804ZM348.132 306.736L347.488 307.501V307.501L348.132 306.736ZM348.948 314.296L348.143 313.703L348.141 313.705L348.948 314.296ZM346.116 316.24L345.807 315.289L344.51 315.71L345.301 316.82L346.116 316.24ZM350.22 322V323H352.16L351.034 321.42L350.22 322ZM346.86 314.056L347.501 314.823L346.86 314.056ZM346.86 307.84L346.218 308.607L346.227 308.614L346.86 307.84ZM338.58 306.736V305.736H337.58V306.736H338.58ZM338.58 315.16H337.58V316.16H338.58V315.16ZM349.091 321.42L345.251 316.02L343.621 317.18L347.461 322.58L349.091 321.42ZM344.325 315.606C343.932 315.65 343.521 315.672 343.092 315.672V317.672C343.59 317.672 344.075 317.646 344.546 317.594L344.325 315.606ZM343.092 315.672H338.58V317.672H343.092V315.672ZM337.58 316.672V322H339.58V316.672H337.58ZM338.58 321H336.804V323H338.58V321ZM337.804 322V305.2H335.804V322H337.804ZM336.804 306.2H343.092V304.2H336.804V306.2ZM343.092 306.2C345.083 306.2 346.506 306.675 347.488 307.501L348.776 305.971C347.325 304.749 345.389 304.2 343.092 304.2V306.2ZM347.488 307.501C348.448 308.309 348.956 309.421 348.956 310.96H350.956C350.956 308.915 350.248 307.211 348.776 305.971L347.488 307.501ZM348.956 310.96C348.956 312.094 348.669 312.989 348.143 313.703L349.753 314.889C350.571 313.779 350.956 312.45 350.956 310.96H348.956ZM348.141 313.705C347.629 314.405 346.874 314.943 345.807 315.289L346.425 317.191C347.822 316.737 348.955 315.979 349.755 314.887L348.141 313.705ZM345.301 316.82L349.405 322.58L351.034 321.42L346.93 315.66L345.301 316.82ZM350.22 321H348.276V323H350.22V321ZM343.044 316.16C344.839 316.16 346.376 315.765 347.501 314.823L346.218 313.289C345.584 313.819 344.576 314.16 343.044 314.16V316.16ZM347.501 314.823C348.646 313.866 349.18 312.532 349.18 310.96H347.18C347.18 312.044 346.834 312.774 346.218 313.289L347.501 314.823ZM349.18 310.96C349.18 309.365 348.651 308.014 347.493 307.066L346.227 308.614C346.828 309.106 347.18 309.835 347.18 310.96H349.18ZM347.501 307.073C346.376 306.131 344.839 305.736 343.044 305.736V307.736C344.576 307.736 345.584 308.077 346.218 308.607L347.501 307.073ZM343.044 305.736H338.58V307.736H343.044V305.736ZM337.58 306.736V315.16H339.58V306.736H337.58ZM338.58 316.16H343.044V314.16H338.58V316.16Z" fill="#8D1B3D"/>
<rect y="521" width="375" height="79" rx="10" fill="#8D1B3D"/>
<path d="M154.082 552H157.322V563.36H164.342V566H154.082V552ZM171.574 566.16C170.441 566.16 169.421 565.927 168.514 565.46C167.621 564.98 166.921 564.32 166.414 563.48C165.907 562.64 165.654 561.687 165.654 560.62C165.654 559.553 165.907 558.6 166.414 557.76C166.921 556.92 167.621 556.267 168.514 555.8C169.421 555.32 170.441 555.08 171.574 555.08C172.707 555.08 173.721 555.32 174.614 555.8C175.507 556.267 176.207 556.92 176.714 557.76C177.221 558.6 177.474 559.553 177.474 560.62C177.474 561.687 177.221 562.64 176.714 563.48C176.207 564.32 175.507 564.98 174.614 565.46C173.721 565.927 172.707 566.16 171.574 566.16ZM171.574 563.6C172.374 563.6 173.027 563.333 173.534 562.8C174.054 562.253 174.314 561.527 174.314 560.62C174.314 559.713 174.054 558.993 173.534 558.46C173.027 557.913 172.374 557.64 171.574 557.64C170.774 557.64 170.114 557.913 169.594 558.46C169.074 558.993 168.814 559.713 168.814 560.62C168.814 561.527 169.074 562.253 169.594 562.8C170.114 563.333 170.774 563.6 171.574 563.6ZM191.26 555.24V564.2C191.26 566.173 190.746 567.64 189.72 568.6C188.693 569.56 187.193 570.04 185.22 570.04C184.18 570.04 183.193 569.913 182.26 569.66C181.326 569.407 180.553 569.04 179.94 568.56L181.18 566.32C181.633 566.693 182.206 566.987 182.9 567.2C183.593 567.427 184.286 567.54 184.98 567.54C186.06 567.54 186.853 567.293 187.36 566.8C187.88 566.32 188.14 565.587 188.14 564.6V564.14C187.326 565.033 186.193 565.48 184.74 565.48C183.753 565.48 182.846 565.267 182.02 564.84C181.206 564.4 180.56 563.787 180.08 563C179.6 562.213 179.36 561.307 179.36 560.28C179.36 559.253 179.6 558.347 180.08 557.56C180.56 556.773 181.206 556.167 182.02 555.74C182.846 555.3 183.753 555.08 184.74 555.08C186.3 555.08 187.486 555.593 188.3 556.62V555.24H191.26ZM185.36 562.92C186.186 562.92 186.86 562.68 187.38 562.2C187.913 561.707 188.18 561.067 188.18 560.28C188.18 559.493 187.913 558.86 187.38 558.38C186.86 557.887 186.186 557.64 185.36 557.64C184.533 557.64 183.853 557.887 183.32 558.38C182.786 558.86 182.52 559.493 182.52 560.28C182.52 561.067 182.786 561.707 183.32 562.2C183.853 562.68 184.533 562.92 185.36 562.92ZM201.247 552H204.487V566H201.247V552ZM214.73 555.08C216.063 555.08 217.137 555.48 217.95 556.28C218.777 557.08 219.19 558.267 219.19 559.84V566H216.07V560.32C216.07 559.467 215.883 558.833 215.51 558.42C215.137 557.993 214.597 557.78 213.89 557.78C213.103 557.78 212.477 558.027 212.01 558.52C211.543 559 211.31 559.72 211.31 560.68V566H208.19V555.24H211.17V556.5C211.583 556.047 212.097 555.7 212.71 555.46C213.323 555.207 213.997 555.08 214.73 555.08Z" fill="black"/>
<rect y="635" width="375" height="79" rx="9" fill="#8D1B3D"/>
<path d="M150.042 680.24C148.935 680.24 147.862 680.093 146.822 679.8C145.795 679.493 144.969 679.1 144.342 678.62L145.442 676.18C146.042 676.62 146.755 676.973 147.582 677.24C148.409 677.507 149.235 677.64 150.062 677.64C150.982 677.64 151.662 677.507 152.102 677.24C152.542 676.96 152.762 676.593 152.762 676.14C152.762 675.807 152.629 675.533 152.362 675.32C152.109 675.093 151.775 674.913 151.362 674.78C150.962 674.647 150.415 674.5 149.722 674.34C148.655 674.087 147.782 673.833 147.102 673.58C146.422 673.327 145.835 672.92 145.342 672.36C144.862 671.8 144.622 671.053 144.622 670.12C144.622 669.307 144.842 668.573 145.282 667.92C145.722 667.253 146.382 666.727 147.262 666.34C148.155 665.953 149.242 665.76 150.522 665.76C151.415 665.76 152.289 665.867 153.142 666.08C153.995 666.293 154.742 666.6 155.382 667L154.382 669.46C153.089 668.727 151.795 668.36 150.502 668.36C149.595 668.36 148.922 668.507 148.482 668.8C148.055 669.093 147.842 669.48 147.842 669.96C147.842 670.44 148.089 670.8 148.582 671.04C149.089 671.267 149.855 671.493 150.882 671.72C151.949 671.973 152.822 672.227 153.502 672.48C154.182 672.733 154.762 673.133 155.242 673.68C155.735 674.227 155.982 674.967 155.982 675.9C155.982 676.7 155.755 677.433 155.302 678.1C154.862 678.753 154.195 679.273 153.302 679.66C152.409 680.047 151.322 680.24 150.042 680.24ZM158.576 669.24H161.696V680H158.576V669.24ZM160.136 667.74C159.563 667.74 159.096 667.573 158.736 667.24C158.376 666.907 158.196 666.493 158.196 666C158.196 665.507 158.376 665.093 158.736 664.76C159.096 664.427 159.563 664.26 160.136 664.26C160.709 664.26 161.176 664.42 161.536 664.74C161.896 665.06 162.076 665.46 162.076 665.94C162.076 666.46 161.896 666.893 161.536 667.24C161.176 667.573 160.709 667.74 160.136 667.74ZM176.292 669.24V678.2C176.292 680.173 175.778 681.64 174.752 682.6C173.725 683.56 172.225 684.04 170.252 684.04C169.212 684.04 168.225 683.913 167.292 683.66C166.358 683.407 165.585 683.04 164.972 682.56L166.212 680.32C166.665 680.693 167.238 680.987 167.932 681.2C168.625 681.427 169.318 681.54 170.012 681.54C171.092 681.54 171.885 681.293 172.392 680.8C172.912 680.32 173.172 679.587 173.172 678.6V678.14C172.358 679.033 171.225 679.48 169.772 679.48C168.785 679.48 167.878 679.267 167.052 678.84C166.238 678.4 165.592 677.787 165.112 677C164.632 676.213 164.392 675.307 164.392 674.28C164.392 673.253 164.632 672.347 165.112 671.56C165.592 670.773 166.238 670.167 167.052 669.74C167.878 669.3 168.785 669.08 169.772 669.08C171.332 669.08 172.518 669.593 173.332 670.62V669.24H176.292ZM170.392 676.92C171.218 676.92 171.892 676.68 172.412 676.2C172.945 675.707 173.212 675.067 173.212 674.28C173.212 673.493 172.945 672.86 172.412 672.38C171.892 671.887 171.218 671.64 170.392 671.64C169.565 671.64 168.885 671.887 168.352 672.38C167.818 672.86 167.552 673.493 167.552 674.28C167.552 675.067 167.818 675.707 168.352 676.2C168.885 676.68 169.565 676.92 170.392 676.92ZM186.335 669.08C187.669 669.08 188.742 669.48 189.555 670.28C190.382 671.08 190.795 672.267 190.795 673.84V680H187.675V674.32C187.675 673.467 187.489 672.833 187.115 672.42C186.742 671.993 186.202 671.78 185.495 671.78C184.709 671.78 184.082 672.027 183.615 672.52C183.149 673 182.915 673.72 182.915 674.68V680H179.795V669.24H182.775V670.5C183.189 670.047 183.702 669.7 184.315 669.46C184.929 669.207 185.602 669.08 186.335 669.08ZM206.928 680.24C204.928 680.24 203.368 679.687 202.248 678.58C201.141 677.473 200.588 675.893 200.588 673.84V666H203.828V673.72C203.828 676.227 204.868 677.48 206.948 677.48C207.961 677.48 208.734 677.18 209.268 676.58C209.801 675.967 210.068 675.013 210.068 673.72V666H213.268V673.84C213.268 675.893 212.708 677.473 211.588 678.58C210.481 679.687 208.928 680.24 206.928 680.24ZM223.209 669.08C224.209 669.08 225.116 669.313 225.929 669.78C226.756 670.233 227.403 670.88 227.869 671.72C228.336 672.547 228.569 673.513 228.569 674.62C228.569 675.727 228.336 676.7 227.869 677.54C227.403 678.367 226.756 679.013 225.929 679.48C225.116 679.933 224.209 680.16 223.209 680.16C221.836 680.16 220.756 679.727 219.969 678.86V683.88H216.849V669.24H219.829V670.48C220.603 669.547 221.729 669.08 223.209 669.08ZM222.669 677.6C223.469 677.6 224.123 677.333 224.629 676.8C225.149 676.253 225.409 675.527 225.409 674.62C225.409 673.713 225.149 672.993 224.629 672.46C224.123 671.913 223.469 671.64 222.669 671.64C221.869 671.64 221.209 671.913 220.689 672.46C220.183 672.993 219.929 673.713 219.929 674.62C219.929 675.527 220.183 676.253 220.689 676.8C221.209 677.333 221.869 677.6 222.669 677.6Z" fill="black"/>
</g>
<defs>
<clipPath id="clip0">
<rect width="375" height="812" fill="white"/>
</clipPath>
</defs>
</svg>
